{
	"asset":{
		"generator":"Khronos glTF Blender I/O v4.0.43",
		"version":"2.0"
	},
	"extensionsUsed":[
		"KHR_materials_specular",
		"KHR_materials_ior"
	],
	"scene":0,
	"scenes":[
		{
			"name":"Scene",
			"nodes":[
				0
			]
		}
	],
	"nodes":[
		{
			"mesh":0,
			"name":"cat_with_lights",
			"rotation":[
				0.7071068286895752,
				0,
				0,
				0.7071068286895752
			],
			"scale":[
				0.0029364661313593388,
				0.0029364661313593388,
				0.0029364661313593388
			]
		}
	],
	"materials":[
		{
			"doubleSided":true,
			"extensions":{
				"KHR_materials_specular":{
					"specularFactor":0
				},
				"KHR_materials_ior":{
					"ior":1.4500000476837158
				}
			},
			"name":"eyes_LPSG",
			"pbrMetallicRoughness":{
				"baseColorTexture":{
					"index":0
				},
				"metallicFactor":0
			}
		}
	],
	"meshes":[
		{
			"name":"cat_with_lights",
			"primitives":[
				{
					"attributes":{
						"POSITION":0,
						"NORMAL":1,
						"TEXCOORD_0":2
					},
					"indices":3,
					"material":0
				}
			]
		}
	],
	"textures":[
		{
			"sampler":0,
			"source":0
		}
	],
	"images":[
		{
			"mimeType":"image/jpeg",
			"name":"all_LP_vers2_lambert2_BaseColor.1001",
			"uri":"textures/all_LP_vers2_lambert2_BaseColor_1001.jpg"
		}
	],
	"accessors":[
		{
			"bufferView":0,
			"componentType":5126,
			"count":16606,
			"max":[
				143.971923828125,
				128.94070434570312,
				-0.323947012424469
			],
			"min":[
				-143.96669006347656,
				-126.16288757324219,
				-447.7100524902344
			],
			"type":"VEC3"
		},
		{
			"bufferView":1,
			"componentType":5126,
			"count":16606,
			"type":"VEC3"
		},
		{
			"bufferView":2,
			"componentType":5126,
			"count":16606,
			"type":"VEC2"
		},
		{
			"bufferView":3,
			"componentType":5123,
			"count":51870,
			"type":"SCALAR"
		}
	],
	"bufferViews":[
		{
			"buffer":0,
			"byteLength":199272,
			"byteOffset":0,
			"target":34962
		},
		{
			"buffer":0,
			"byteLength":199272,
			"byteOffset":199272,
			"target":34962
		},
		{
			"buffer":0,
			"byteLength":132848,
			"byteOffset":398544,
			"target":34962
		},
		{
			"buffer":0,
			"byteLength":103740,
			"byteOffset":531392,
			"target":34963
		}
	],
	"samplers":[
		{
			"magFilter":9729,
			"minFilter":9987
		}
	],
	"buffers":[
		{
			"byteLength":635132,
			"uri":"scene.bin"
		}
	]
}
