{
	"asset":{
		"generator":"Khronos glTF Blender I/O v3.6.28",
		"version":"2.0"
	},
	"scene":0,
	"scenes":[
		{
			"name":"Scene",
			"nodes":[
				0,
				1,
				2,
				3,
				4
			]
		}
	],
	"nodes":[
		{
			"mesh":0,
			"name":"Cat"
		},
		{
			"mesh":1,
			"name":"Eye",
			"rotation":[
				-0.07745086401700974,
				0.17694410681724548,
				0.02661728300154209,
				0.9808076620101929
			],
			"scale":[
				0.13773567974567413,
				0.1377357393503189,
				0.03568750619888306
			],
			"translation":[
				0.1967678666114807,
				0.2863912284374237,
				0.4317469298839569
			]
		},
		{
			"mesh":2,
			"name":"Eye.001",
			"rotation":[
				-0.07745087146759033,
				0.17694410681724548,
				0.02661728672683239,
				0.9808077812194824
			],
			"scale":[
				0.12190495431423187,
				0.12190496921539307,
				0.03158573806285858
			],
			"translation":[
				0.1909012496471405,
				0.28418368101119995,
				0.4526226818561554
			]
		},
		{
			"mesh":3,
			"name":"Plane",
			"translation":[
				0,
				0.1407337635755539,
				0
			]
		},
		{
			"mesh":4,
			"name":"Plane.002",
			"rotation":[
				0.002586046466603875,
				0.11216921359300613,
				0.18519997596740723,
				0.9762747287750244
			],
			"translation":[
				0.024399373680353165,
				0.34829971194267273,
				-0.07434053719043732
			]
		}
	],
	"materials":[
		{
			"doubleSided":true,
			"name":"Cat",
			"pbrMetallicRoughness":{
				"metallicFactor":0,
				"roughnessFactor":0.5
			}
		},
		{
			"doubleSided":true,
			"name":"Eye 1",
			"pbrMetallicRoughness":{
				"metallicFactor":0,
				"roughnessFactor":0
			}
		},
		{
			"doubleSided":true,
			"name":"Eye",
			"pbrMetallicRoughness":{
				"baseColorFactor":[
					0,
					0,
					0,
					1
				],
				"metallicFactor":0,
				"roughnessFactor":0.6279069781303406
			}
		},
		{
			"doubleSided":true,
			"name":"Nose",
			"pbrMetallicRoughness":{
				"baseColorFactor":[
					0.012216678820550442,
					0.012216678820550442,
					0.012216678820550442,
					1
				],
				"metallicFactor":0,
				"roughnessFactor":0.5
			}
		},
		{
			"doubleSided":true,
			"name":"Nose",
			"pbrMetallicRoughness":{
				"baseColorFactor":[
					0.012216678820550442,
					0.012216678820550442,
					0.012216678820550442,
					1
				],
				"metallicFactor":0,
				"roughnessFactor":0.5
			}
		}
	],
	"meshes":[
		{
			"name":"Cube.002",
			"primitives":[
				{
					"attributes":{
						"POSITION":0,
						"NORMAL":1,
						"TEXCOORD_0":2
					},
					"indices":3,
					"material":0
				}
			]
		},
		{
			"name":"Cube.003",
			"primitives":[
				{
					"attributes":{
						"POSITION":4,
						"NORMAL":5,
						"TEXCOORD_0":6
					},
					"indices":7,
					"material":1
				}
			]
		},
		{
			"name":"Cube.004",
			"primitives":[
				{
					"attributes":{
						"POSITION":8,
						"NORMAL":9,
						"TEXCOORD_0":10
					},
					"indices":7,
					"material":2
				}
			]
		},
		{
			"name":"Mesh",
			"primitives":[
				{
					"attributes":{
						"POSITION":11,
						"NORMAL":12
					},
					"indices":13,
					"material":3
				}
			]
		},
		{
			"name":"Plane.002",
			"primitives":[
				{
					"attributes":{
						"POSITION":14,
						"NORMAL":15
					},
					"indices":16,
					"material":4
				}
			]
		}
	],
	"accessors":[
		{
			"bufferView":0,
			"componentType":5126,
			"count":12414,
			"max":[
				0.5224622488021851,
				0.6458614468574524,
				0.5270597338676453
			],
			"min":[
				-0.5224621891975403,
				-0.799496591091156,
				-0.4506192207336426
			],
			"type":"VEC3"
		},
		{
			"bufferView":1,
			"componentType":5126,
			"count":12414,
			"type":"VEC3"
		},
		{
			"bufferView":2,
			"componentType":5126,
			"count":12414,
			"type":"VEC2"
		},
		{
			"bufferView":3,
			"componentType":5123,
			"count":73728,
			"type":"SCALAR"
		},
		{
			"bufferView":4,
			"componentType":5126,
			"count":3298,
			"max":[
				0.699588418006897,
				0.9276936054229736,
				0.699588418006897
			],
			"min":[
				-3.227574348449707,
				-0.699588418006897,
				-5.6186113357543945
			],
			"type":"VEC3"
		},
		{
			"bufferView":5,
			"componentType":5126,
			"count":3298,
			"type":"VEC3"
		},
		{
			"bufferView":6,
			"componentType":5126,
			"count":3298,
			"type":"VEC2"
		},
		{
			"bufferView":7,
			"componentType":5123,
			"count":18432,
			"type":"SCALAR"
		},
		{
			"bufferView":8,
			"componentType":5126,
			"count":3298,
			"max":[
				0.699588418006897,
				0.9495728015899658,
				0.699588418006897
			],
			"min":[
				-3.4847664833068848,
				-0.699588418006897,
				-5.982348918914795
			],
			"type":"VEC3"
		},
		{
			"bufferView":9,
			"componentType":5126,
			"count":3298,
			"type":"VEC3"
		},
		{
			"bufferView":10,
			"componentType":5126,
			"count":3298,
			"type":"VEC2"
		},
		{
			"bufferView":11,
			"componentType":5126,
			"count":1062,
			"max":[
				0.05046060308814049,
				0.051930975168943405,
				0.5200203061103821
			],
			"min":[
				-0.05046060308814049,
				-0.002338602440431714,
				0.4973897933959961
			],
			"type":"VEC3"
		},
		{
			"bufferView":12,
			"componentType":5126,
			"count":1062,
			"type":"VEC3"
		},
		{
			"bufferView":13,
			"componentType":5123,
			"count":6384,
			"type":"SCALAR"
		},
		{
			"bufferView":14,
			"componentType":5126,
			"count":452,
			"max":[
				0.055646829307079315,
				0.15043242275714874,
				0.5219442248344421
			],
			"min":[
				-0.2734316289424896,
				0.006953153293579817,
				0.4183984398841858
			],
			"type":"VEC3"
		},
		{
			"bufferView":15,
			"componentType":5126,
			"count":452,
			"type":"VEC3"
		},
		{
			"bufferView":16,
			"componentType":5123,
			"count":2688,
			"type":"SCALAR"
		}
	],
	"bufferViews":[
		{
			"buffer":0,
			"byteLength":148968,
			"byteOffset":0,
			"target":34962
		},
		{
			"buffer":0,
			"byteLength":148968,
			"byteOffset":148968,
			"target":34962
		},
		{
			"buffer":0,
			"byteLength":99312,
			"byteOffset":297936,
			"target":34962
		},
		{
			"buffer":0,
			"byteLength":147456,
			"byteOffset":397248,
			"target":34963
		},
		{
			"buffer":0,
			"byteLength":39576,
			"byteOffset":544704,
			"target":34962
		},
		{
			"buffer":0,
			"byteLength":39576,
			"byteOffset":584280,
			"target":34962
		},
		{
			"buffer":0,
			"byteLength":26384,
			"byteOffset":623856,
			"target":34962
		},
		{
			"buffer":0,
			"byteLength":36864,
			"byteOffset":650240,
			"target":34963
		},
		{
			"buffer":0,
			"byteLength":39576,
			"byteOffset":687104,
			"target":34962
		},
		{
			"buffer":0,
			"byteLength":39576,
			"byteOffset":726680,
			"target":34962
		},
		{
			"buffer":0,
			"byteLength":26384,
			"byteOffset":766256,
			"target":34962
		},
		{
			"buffer":0,
			"byteLength":12744,
			"byteOffset":792640,
			"target":34962
		},
		{
			"buffer":0,
			"byteLength":12744,
			"byteOffset":805384,
			"target":34962
		},
		{
			"buffer":0,
			"byteLength":12768,
			"byteOffset":818128,
			"target":34963
		},
		{
			"buffer":0,
			"byteLength":5424,
			"byteOffset":830896,
			"target":34962
		},
		{
			"buffer":0,
			"byteLength":5424,
			"byteOffset":836320,
			"target":34962
		},
		{
			"buffer":0,
			"byteLength":5376,
			"byteOffset":841744,
			"target":34963
		}
	],
	"buffers":[
		{
			"byteLength":847120,
			"uri":"data:application/octet-stream;base64,"
		}
	]
}
