{
	"asset":{
		"generator":"Khronos glTF Blender I/O v4.0.43",
		"version":"2.0"
	},
	"extensionsUsed":[
		"KHR_materials_specular",
		"KHR_materials_ior"
	],
	"scene":0,
	"scenes":[
		{
			"name":"Scene",
			"nodes":[
				0
			]
		}
	],
	"nodes":[
		{
			"mesh":0,
			"name":"book_",
			"rotation":[
				0.7071067690849304,
				0,
				0,
				0.7071068286895752
			],
			"scale":[
				0.00379184284247458,
				0.00379184284247458,
				0.00379184284247458
			]
		}
	],
	"materials":[
		{
			"doubleSided":true,
			"extensions":{
				"KHR_materials_specular":{
					"specularFactor":0
				},
				"KHR_materials_ior":{
					"ior":1.4500000476837158
				}
			},
			"name":"MeshSG",
			"pbrMetallicRoughness":{
				"baseColorTexture":{
					"index":0
				},
				"metallicFactor":0
			}
		},
		{
			"doubleSided":true,
			"extensions":{
				"KHR_materials_specular":{
					"specularFactor":0
				},
				"KHR_materials_ior":{
					"ior":1.4500000476837158
				}
			},
			"name":"lambert5SG",
			"pbrMetallicRoughness":{
				"baseColorFactor":[
					0.800000011920929,
					0.800000011920929,
					0.800000011920929,
					1
				],
				"metallicFactor":0
			}
		}
	],
	"meshes":[
		{
			"name":"book_",
			"primitives":[
				{
					"attributes":{
						"POSITION":0,
						"NORMAL":1,
						"TEXCOORD_0":2
					},
					"indices":3,
					"material":0
				},
				{
					"attributes":{
						"POSITION":4,
						"NORMAL":5,
						"TEXCOORD_0":6
					},
					"indices":7,
					"material":1
				}
			]
		}
	],
	"textures":[
		{
			"sampler":0,
			"source":0
		}
	],
	"images":[
		{
			"mimeType":"image/png",
			"name":"book_1001_BaseColor",
			"uri":"textures/book_1001_BaseColor.png"
		}
	],
	"accessors":[
		{
			"bufferView":0,
			"componentType":5126,
			"count":3464,
			"max":[
				228.13365173339844,
				38.81511306762695,
				146.1553955078125
			],
			"min":[
				-228.13365173339844,
				-133.34600830078125,
				-117.94923400878906
			],
			"type":"VEC3"
		},
		{
			"bufferView":1,
			"componentType":5126,
			"count":3464,
			"type":"VEC3"
		},
		{
			"bufferView":2,
			"componentType":5126,
			"count":3464,
			"type":"VEC2"
		},
		{
			"bufferView":3,
			"componentType":5123,
			"count":9474,
			"type":"SCALAR"
		},
		{
			"bufferView":4,
			"componentType":5126,
			"count":1175,
			"max":[
				209.7867889404297,
				133.34600830078125,
				135.56324768066406
			],
			"min":[
				-161.27774047851562,
				-115.34664154052734,
				-146.1553955078125
			],
			"type":"VEC3"
		},
		{
			"bufferView":5,
			"componentType":5126,
			"count":1175,
			"type":"VEC3"
		},
		{
			"bufferView":6,
			"componentType":5126,
			"count":1175,
			"type":"VEC2"
		},
		{
			"bufferView":7,
			"componentType":5123,
			"count":2364,
			"type":"SCALAR"
		}
	],
	"bufferViews":[
		{
			"buffer":0,
			"byteLength":41568,
			"byteOffset":0,
			"target":34962
		},
		{
			"buffer":0,
			"byteLength":41568,
			"byteOffset":41568,
			"target":34962
		},
		{
			"buffer":0,
			"byteLength":27712,
			"byteOffset":83136,
			"target":34962
		},
		{
			"buffer":0,
			"byteLength":18948,
			"byteOffset":110848,
			"target":34963
		},
		{
			"buffer":0,
			"byteLength":14100,
			"byteOffset":129796,
			"target":34962
		},
		{
			"buffer":0,
			"byteLength":14100,
			"byteOffset":143896,
			"target":34962
		},
		{
			"buffer":0,
			"byteLength":9400,
			"byteOffset":157996,
			"target":34962
		},
		{
			"buffer":0,
			"byteLength":4728,
			"byteOffset":167396,
			"target":34963
		}
	],
	"samplers":[
		{
			"magFilter":9729,
			"minFilter":9987
		}
	],
	"buffers":[
		{
			"byteLength":172124,
			"uri":"scene.bin"
		}
	]
}
